<svg width="580" height="580" viewBox="0 0 580 580" fill="none" xmlns="http://www.w3.org/2000/svg">
<mask id="mask0_137_5" style="mask-type:alpha" maskUnits="userSpaceOnUse" x="28" y="65" width="525" height="450">
<path d="M49.0907 66.0399C44.5192 67.4368 43.2494 68.1987 36.3922 74.8018C27.3764 83.1828 28.0113 70.7384 28.0113 252.58C28.0113 433.786 27.3764 419.818 35.6303 428.199C44.0113 436.453 39.3129 436.072 124.265 436.453L201.345 436.834L200.583 440.262C200.202 442.167 199.313 445.722 198.678 448.135C198.043 450.548 196.646 456.897 195.63 462.103C194.487 467.31 192.71 475.183 191.44 479.627L189.281 487.5H170.868C154.741 487.5 151.948 487.881 148.392 490.04C144.456 492.453 144.202 492.961 144.202 499.945C144.202 506.294 144.71 507.818 147.503 510.484L150.805 513.532L253.535 513.913C366.17 514.294 363.63 514.421 366.551 506.929C368.71 501.215 367.186 493.722 362.995 490.421C359.821 487.754 357.916 487.5 340.519 487.246L321.599 486.865L318.043 471.627C316.011 463.246 313.599 452.834 312.456 448.516C311.44 444.199 310.551 439.881 310.551 438.738C310.551 437.088 319.186 436.834 387.757 436.453C471.186 436.072 466.36 436.453 474.741 429.088C476.773 427.31 479.44 423.881 480.837 421.342L483.122 416.77L463.694 396.58C444.519 376.77 444.265 376.516 441.218 378.421C431.313 384.643 408.202 391.754 391.186 393.659C378.36 395.183 347.757 394.294 341.027 392.262C338.614 391.5 333.535 389.976 329.726 388.961C321.853 386.802 317.662 385.151 303.313 377.913C297.472 375.119 292.773 372.326 292.773 371.691C292.773 371.183 240.329 370.675 176.202 370.675C77.4081 370.675 59.2494 370.421 57.0907 368.897C54.678 367.119 54.678 364.453 55.0589 231.373C55.4399 108.453 55.6938 95.6272 57.5986 94.1034C59.1224 92.9606 101.027 92.5796 257.091 92.5796C367.313 92.5796 455.44 93.0876 456.456 93.7225C457.726 94.4844 458.36 99.0558 458.868 109.596L459.503 124.453L465.98 130.421C469.535 133.722 475.376 139.437 479.059 142.992C482.614 146.675 485.789 149.722 486.043 149.722C486.17 149.722 486.424 135.627 486.424 118.23C486.424 87.3733 486.424 86.7384 483.376 81.786C479.059 74.6749 477.027 72.3892 471.186 68.5796L466.106 65.278L259.757 65.0241C129.218 64.8971 51.8843 65.278 49.0907 66.0399Z" fill="black"/>
<path d="M360.075 112.516C330.487 114.167 296.71 129.532 275.122 151.119C268.519 157.722 255.948 174.103 255.948 176.135C255.948 176.77 255.44 177.659 254.932 177.913C253.408 178.548 246.043 193.659 243.884 200.897C238.043 219.437 236.9 227.31 236.9 245.849C236.9 258.675 237.535 266.929 238.932 272.135C244.011 292.199 243.503 290.548 248.964 302.611C261.535 330.167 283.249 352.643 310.551 366.23C331.376 376.643 346.741 380.072 371.503 380.072C398.17 380.072 414.424 376.135 435.503 364.453L445.535 358.992L483.122 396.58C525.662 438.992 528.583 441.151 538.487 437.469C545.091 434.929 549.916 429.722 551.948 422.992C554.868 413.215 553.599 411.564 512.964 370.675C492.392 349.976 475.63 332.707 475.63 332.199C475.63 331.691 477.916 328.262 480.583 324.58C488.329 314.294 498.234 294.357 501.154 283.056C507.503 258.548 507.503 234.04 501.154 209.405C497.472 195.437 492.519 184.516 482.487 168.643C478.551 162.294 457.726 140.834 455.567 140.834C454.678 140.834 454.043 140.326 454.043 139.818C454.043 139.31 452.138 137.786 449.98 136.389C447.694 135.119 445.535 133.595 445.154 133.088C443.757 131.056 423.567 121.786 414.043 118.738C397.154 113.405 379.63 111.373 360.075 112.516ZM395.63 142.357C403.249 143.881 412.138 146.421 415.567 148.326C416.837 148.961 419.63 150.23 421.662 151.119C425.218 152.77 440.329 163.31 446.551 168.389C455.948 176.389 468.646 197.088 473.599 212.707C488.71 260.453 469.408 311.881 426.741 337.786C422.17 340.453 417.726 342.738 416.71 342.738C415.694 342.738 414.551 343.246 414.17 343.881C413.662 344.516 410.107 346.04 406.043 347.183C402.107 348.326 397.154 349.849 394.995 350.611C392.964 351.373 384.202 352.262 375.694 352.516C356.646 353.405 342.17 350.611 326.17 343.246C322.614 341.596 318.932 340.199 318.297 340.199C317.535 340.199 316.9 339.564 316.9 338.929C316.9 338.167 316.265 337.659 315.63 337.659C313.853 337.659 302.297 329.024 295.821 322.929C288.583 316.072 277.535 300.453 273.345 291.31C266.741 276.707 264.837 266.548 264.837 245.722C264.837 228.199 265.345 223.627 268.9 211.945C270.297 207.119 277.408 191.373 278.678 190.357C279.059 189.976 280.329 188.072 281.345 186.04C282.36 184.008 287.567 178.04 292.773 172.58C311.059 154.04 332.773 143.246 356.9 140.834C368.837 139.691 385.726 140.326 395.63 142.357Z" fill="black"/>
<path d="M362.995 170.929C361.853 171.31 361.345 174.992 361.345 182.865V194.167H333.027H304.583L303.186 197.342C301.027 202.167 301.281 208.77 303.948 211.818C305.853 214.103 307.63 214.484 319.186 214.738L332.265 215.119L336.456 227.183C340.773 239.754 346.107 251.691 347.757 252.326C348.265 252.58 348.646 253.342 348.646 253.976C348.646 254.738 350.932 258.294 353.726 262.103C356.519 265.913 358.805 269.723 358.805 270.611C358.805 271.627 357.154 273.405 354.995 274.548C352.964 275.818 350.551 277.469 349.662 278.357C346.868 280.897 338.107 286.357 327.567 292.072C314.995 298.802 314.36 299.31 314.36 302.738C314.36 306.167 321.599 314.802 324.392 314.802C325.662 314.802 328.964 313.659 331.884 312.262C334.805 310.865 338.487 309.088 340.138 308.453C342.805 307.31 346.107 305.278 349.154 302.992C349.916 302.484 353.853 299.945 357.916 297.151C361.98 294.484 366.551 291.183 368.075 289.786C373.154 285.469 373.662 285.469 379.376 290.04C382.297 292.58 386.107 295.5 387.503 296.77C390.551 299.183 392.075 300.199 402.234 306.294C413.535 313.278 417.345 314.294 421.535 311.627C423.44 310.357 425.853 307.691 426.868 305.532C428.773 302.103 428.646 301.469 426.487 298.421C424.075 295.373 414.043 288.897 409.345 287.246C408.075 286.865 407.059 286.103 407.059 285.596C407.059 284.961 406.043 284.199 404.9 283.818C403.63 283.437 400.964 281.532 398.805 279.754C396.773 277.976 393.726 275.564 392.202 274.548C387.63 271.5 388.011 270.103 396.9 259.31C397.662 258.421 398.17 257.151 398.17 256.389C398.17 255.754 398.678 255.119 399.186 255.119C400.964 255.119 410.487 235.945 414.17 224.897L417.599 214.484H427.757C439.567 214.484 441.218 213.215 441.218 204.326C441.218 194.04 441.726 194.167 409.091 194.167H380.392V184.897C380.392 172.707 378.614 170.04 370.487 170.167C367.186 170.167 363.757 170.548 362.995 170.929ZM396.265 218.548C395.757 220.834 394.868 223.5 394.36 224.643C393.853 225.659 392.329 228.834 391.059 231.627C389.662 234.421 388.265 236.834 387.757 237.088C387.122 237.342 386.741 238.103 386.741 238.738C386.741 240.135 375.186 256.389 374.17 256.389C370.614 256.389 349.916 217.532 352.075 215.246C352.583 214.865 362.868 214.484 374.932 214.484H397.154L396.265 218.548Z" fill="black"/>
<path d="M145.472 164.58C144.583 168.008 143.313 171.31 142.805 172.072C142.17 172.834 140.519 176.77 139.122 180.961C135.567 191.627 130.868 204.453 129.218 208.135C127.948 211.183 122.361 226.294 113.091 251.945C110.805 258.167 107.122 268.199 104.837 274.167C102.678 280.135 100.392 286.357 99.7573 288.135C99.2494 289.913 97.5986 294.357 96.0748 297.913L93.4081 304.643H107.249H121.091L122.614 300.453C123.376 298.294 124.9 294.484 125.916 292.199C126.932 289.913 127.694 287.246 127.694 286.23C127.694 285.088 128.202 283.31 128.837 282.04C129.472 280.897 130.614 278.357 131.376 276.326L132.773 272.897L157.789 272.77C171.63 272.643 184.329 272.389 186.107 272.262C188.646 271.881 189.662 272.643 190.805 275.183C192.837 279.754 198.805 296.897 199.694 300.453C200.329 303.246 200.964 303.373 214.17 303.373C221.789 303.373 228.011 302.865 228.011 302.23C228.011 301.342 225.218 293.596 219.122 277.342C217.853 273.786 215.567 267.564 214.043 263.373C212.519 259.183 210.741 254.611 210.107 253.215C208.964 250.802 204.646 238.865 198.043 220.453C196.265 215.754 194.487 210.802 193.853 209.659C192.837 207.5 191.186 203.183 185.218 185.913C183.567 180.961 181.535 176.516 180.9 175.881C180.265 175.119 179.757 173.596 179.757 172.326C179.757 171.056 179.249 169.024 178.614 167.754C177.98 166.611 176.837 164.072 176.075 162.04L174.678 158.611H160.964H147.122L145.472 164.58ZM167.186 208.135C170.868 219.056 179.249 242.802 180.392 245.215C181.281 247.373 179.884 247.5 161.599 247.5H141.916L142.932 243.31C143.948 239.627 148.9 225.659 157.408 202.421C159.186 197.596 160.71 193.278 160.71 192.897C160.837 191.754 164.646 200.897 167.186 208.135Z" fill="black"/>
</mask>
<g mask="url(#mask0_137_5)">
<path d="M49.0907 66.0399C44.5192 67.4368 43.2494 68.1987 36.3922 74.8018C27.3764 83.1828 28.0113 70.7384 28.0113 252.58C28.0113 433.786 27.3764 419.818 35.6303 428.199C44.0113 436.453 39.3129 436.072 124.265 436.453L201.345 436.834L200.583 440.262C200.202 442.167 199.313 445.722 198.678 448.135C198.043 450.548 196.646 456.897 195.63 462.103C194.487 467.31 192.71 475.183 191.44 479.627L189.281 487.5H170.868C154.741 487.5 151.948 487.881 148.392 490.04C144.456 492.453 144.202 492.961 144.202 499.945C144.202 506.294 144.71 507.818 147.503 510.484L150.805 513.532L253.535 513.913C366.17 514.294 363.63 514.421 366.551 506.929C368.71 501.215 367.186 493.722 362.995 490.421C359.821 487.754 357.916 487.5 340.519 487.246L321.599 486.865L318.043 471.627C316.011 463.246 313.599 452.834 312.456 448.516C311.44 444.199 310.551 439.881 310.551 438.738C310.551 437.088 319.186 436.834 387.757 436.453C471.186 436.072 466.36 436.453 474.741 429.088C476.773 427.31 479.44 423.881 480.837 421.342L483.122 416.77L463.694 396.58C444.519 376.77 444.265 376.516 441.218 378.421C431.313 384.643 408.202 391.754 391.186 393.659C378.36 395.183 347.757 394.294 341.027 392.262C338.614 391.5 333.535 389.976 329.726 388.961C321.853 386.802 317.662 385.151 303.313 377.913C297.472 375.119 292.773 372.326 292.773 371.691C292.773 371.183 240.329 370.675 176.202 370.675C77.4081 370.675 59.2494 370.421 57.0907 368.897C54.678 367.119 54.678 364.453 55.0589 231.373C55.4399 108.453 55.6938 95.6272 57.5986 94.1034C59.1224 92.9606 101.027 92.5796 257.091 92.5796C367.313 92.5796 455.44 93.0876 456.456 93.7225C457.726 94.4844 458.36 99.0558 458.868 109.596L459.503 124.453L465.98 130.421C469.535 133.722 475.376 139.437 479.059 142.992C482.614 146.675 485.789 149.722 486.043 149.722C486.17 149.722 486.424 135.627 486.424 118.23C486.424 87.3733 486.424 86.7384 483.376 81.786C479.059 74.6749 477.027 72.3892 471.186 68.5796L466.106 65.278L259.757 65.0241C129.218 64.8971 51.8843 65.278 49.0907 66.0399Z" fill="#319E38"/>
<path d="M360.075 112.516C330.487 114.167 296.71 129.532 275.122 151.119C268.519 157.722 255.948 174.103 255.948 176.135C255.948 176.77 255.44 177.659 254.932 177.913C253.408 178.548 246.043 193.659 243.884 200.897C238.043 219.437 236.9 227.31 236.9 245.849C236.9 258.675 237.535 266.929 238.932 272.135C244.011 292.199 243.503 290.548 248.964 302.611C261.535 330.167 283.249 352.643 310.551 366.23C331.376 376.643 346.741 380.072 371.503 380.072C398.17 380.072 414.424 376.135 435.503 364.453L445.535 358.992L483.122 396.58C525.662 438.992 528.583 441.151 538.487 437.469C545.091 434.929 549.916 429.722 551.948 422.992C554.868 413.215 553.599 411.564 512.964 370.675C492.392 349.976 475.63 332.707 475.63 332.199C475.63 331.691 477.916 328.262 480.583 324.58C488.329 314.294 498.234 294.357 501.154 283.056C507.503 258.548 507.503 234.04 501.154 209.405C497.472 195.437 492.519 184.516 482.487 168.643C478.551 162.294 457.726 140.834 455.567 140.834C454.678 140.834 454.043 140.326 454.043 139.818C454.043 139.31 452.138 137.786 449.98 136.389C447.694 135.119 445.535 133.595 445.154 133.088C443.757 131.056 423.567 121.786 414.043 118.738C397.154 113.405 379.63 111.373 360.075 112.516ZM395.63 142.357C403.249 143.881 412.138 146.421 415.567 148.326C416.837 148.961 419.63 150.23 421.662 151.119C425.218 152.77 440.329 163.31 446.551 168.389C455.948 176.389 468.646 197.088 473.599 212.707C488.71 260.453 469.408 311.881 426.741 337.786C422.17 340.453 417.726 342.738 416.71 342.738C415.694 342.738 414.551 343.246 414.17 343.881C413.662 344.516 410.107 346.04 406.043 347.183C402.107 348.326 397.154 349.849 394.995 350.611C392.964 351.373 384.202 352.262 375.694 352.516C356.646 353.405 342.17 350.611 326.17 343.246C322.614 341.596 318.932 340.199 318.297 340.199C317.535 340.199 316.9 339.564 316.9 338.929C316.9 338.167 316.265 337.659 315.63 337.659C313.853 337.659 302.297 329.024 295.821 322.929C288.583 316.072 277.535 300.453 273.345 291.31C266.741 276.707 264.837 266.548 264.837 245.722C264.837 228.199 265.345 223.627 268.9 211.945C270.297 207.119 277.408 191.373 278.678 190.357C279.059 189.976 280.329 188.072 281.345 186.04C282.36 184.008 287.567 178.04 292.773 172.58C311.059 154.04 332.773 143.246 356.9 140.834C368.837 139.691 385.726 140.326 395.63 142.357Z" fill="#319E38"/>
<path d="M362.995 170.929C361.853 171.31 361.345 174.992 361.345 182.865V194.167H333.027H304.583L303.186 197.342C301.027 202.167 301.281 208.77 303.948 211.818C305.853 214.103 307.63 214.484 319.186 214.738L332.265 215.119L336.456 227.183C340.773 239.754 346.107 251.691 347.757 252.326C348.265 252.58 348.646 253.342 348.646 253.976C348.646 254.738 350.932 258.294 353.726 262.103C356.519 265.913 358.805 269.723 358.805 270.611C358.805 271.627 357.154 273.405 354.995 274.548C352.964 275.818 350.551 277.469 349.662 278.357C346.868 280.897 338.107 286.357 327.567 292.072C314.995 298.802 314.36 299.31 314.36 302.738C314.36 306.167 321.599 314.802 324.392 314.802C325.662 314.802 328.964 313.659 331.884 312.262C334.805 310.865 338.487 309.088 340.138 308.453C342.805 307.31 346.107 305.278 349.154 302.992C349.916 302.484 353.853 299.945 357.916 297.151C361.98 294.484 366.551 291.183 368.075 289.786C373.154 285.469 373.662 285.469 379.376 290.04C382.297 292.58 386.107 295.5 387.503 296.77C390.551 299.183 392.075 300.199 402.234 306.294C413.535 313.278 417.345 314.294 421.535 311.627C423.44 310.357 425.853 307.691 426.868 305.532C428.773 302.103 428.646 301.469 426.487 298.421C424.075 295.373 414.043 288.897 409.345 287.246C408.075 286.865 407.059 286.103 407.059 285.596C407.059 284.961 406.043 284.199 404.9 283.818C403.63 283.437 400.964 281.532 398.805 279.754C396.773 277.976 393.726 275.564 392.202 274.548C387.63 271.5 388.011 270.103 396.9 259.31C397.662 258.421 398.17 257.151 398.17 256.389C398.17 255.754 398.678 255.119 399.186 255.119C400.964 255.119 410.487 235.945 414.17 224.897L417.599 214.484H427.757C439.567 214.484 441.218 213.215 441.218 204.326C441.218 194.04 441.726 194.167 409.091 194.167H380.392V184.897C380.392 172.707 378.614 170.04 370.487 170.167C367.186 170.167 363.757 170.548 362.995 170.929ZM396.265 218.548C395.757 220.834 394.868 223.5 394.36 224.643C393.853 225.659 392.329 228.834 391.059 231.627C389.662 234.421 388.265 236.834 387.757 237.088C387.122 237.342 386.741 238.103 386.741 238.738C386.741 240.135 375.186 256.389 374.17 256.389C370.614 256.389 349.916 217.532 352.075 215.246C352.583 214.865 362.868 214.484 374.932 214.484H397.154L396.265 218.548Z" fill="#319E38"/>
<path d="M145.472 164.58C144.583 168.008 143.313 171.31 142.805 172.072C142.17 172.834 140.519 176.77 139.122 180.961C135.567 191.627 130.868 204.453 129.218 208.135C127.948 211.183 122.361 226.294 113.091 251.945C110.805 258.167 107.122 268.199 104.837 274.167C102.678 280.135 100.392 286.357 99.7573 288.135C99.2494 289.913 97.5986 294.357 96.0748 297.913L93.4081 304.643H107.249H121.091L122.614 300.453C123.376 298.294 124.9 294.484 125.916 292.199C126.932 289.913 127.694 287.246 127.694 286.23C127.694 285.088 128.202 283.31 128.837 282.04C129.472 280.897 130.614 278.357 131.376 276.326L132.773 272.897L157.789 272.77C171.63 272.643 184.329 272.389 186.107 272.262C188.646 271.881 189.662 272.643 190.805 275.183C192.837 279.754 198.805 296.897 199.694 300.453C200.329 303.246 200.964 303.373 214.17 303.373C221.789 303.373 228.011 302.865 228.011 302.23C228.011 301.342 225.218 293.596 219.122 277.342C217.853 273.786 215.567 267.564 214.043 263.373C212.519 259.183 210.741 254.611 210.107 253.215C208.964 250.802 204.646 238.865 198.043 220.453C196.265 215.754 194.487 210.802 193.853 209.659C192.837 207.5 191.186 203.183 185.218 185.913C183.567 180.961 181.535 176.516 180.9 175.881C180.265 175.119 179.757 173.596 179.757 172.326C179.757 171.056 179.249 169.024 178.614 167.754C177.98 166.611 176.837 164.072 176.075 162.04L174.678 158.611H160.964H147.122L145.472 164.58ZM167.186 208.135C170.868 219.056 179.249 242.802 180.392 245.215C181.281 247.373 179.884 247.5 161.599 247.5H141.916L142.932 243.31C143.948 239.627 148.9 225.659 157.408 202.421C159.186 197.596 160.71 193.278 160.71 192.897C160.837 191.754 164.646 200.897 167.186 208.135Z" fill="#319E38"/>
</g>
</svg>
